<?xml version="1.0" encoding="UTF-8"?><svg id="b" xmlns="http://www.w3.org/2000/svg" viewBox="0 0 129.23 129.23"><g id="c"><circle cx="64.62" cy="64.62" r="62.85" style="fill:#151b1a; stroke-width:0px;"/><path d="M64.62,129.23C28.99,129.23,0,100.25,0,64.62S28.99,0,64.62,0s64.62,28.99,64.62,64.62-28.99,64.62-64.62,64.62ZM64.62,3.54C30.94,3.54,3.54,30.94,3.54,64.62s27.4,61.08,61.08,61.08,61.08-27.4,61.08-61.08S98.29,3.54,64.62,3.54Z" style="fill:#fff; stroke-width:0px;"/><path d="M34.69,64.7h2.5c1.02,0,1.76.2,2.23.59s.7,1.03.7,1.89c0,.57-.12,1.04-.37,1.42-.25.38-.58.61-1.01.69v.07c.55.14.96.4,1.2.78.25.38.37.89.37,1.52,0,.89-.24,1.59-.71,2.09-.48.5-1.13.76-1.96.76h-2.95v-9.81ZM36.41,68.65h.84c.38,0,.66-.1.81-.31s.24-.51.24-.92-.09-.7-.27-.87c-.18-.18-.46-.26-.85-.26h-.77v2.37ZM36.41,70.17v2.75h.92c.38,0,.66-.12.85-.35.19-.23.28-.59.28-1.08,0-.88-.38-1.32-1.15-1.32h-.89Z" style="fill:#fff; stroke-width:0px;"/><path d="M44,70.69v3.82h-1.82v-9.81h2.39c1.01,0,1.76.24,2.24.72.48.48.72,1.21.72,2.19,0,1.24-.42,2.1-1.25,2.6l1.88,4.3h-1.95l-1.55-3.82h-.65ZM44,69.12h.47c.43,0,.74-.12.93-.36.19-.25.28-.61.28-1.09s-.1-.86-.3-1.07c-.2-.21-.51-.32-.92-.32h-.46v2.84Z" style="fill:#fff; stroke-width:0px;"/><path d="M55.94,69.59c0,1.63-.3,2.87-.91,3.74-.61.87-1.48,1.31-2.61,1.31s-2.01-.43-2.62-1.3c-.61-.87-.91-2.12-.91-3.76s.3-2.87.91-3.73c.61-.87,1.49-1.3,2.63-1.3s2,.44,2.6,1.31c.6.87.91,2.12.91,3.74ZM50.75,69.59c0,1.12.14,1.97.42,2.56s.69.88,1.24.88c1.1,0,1.65-1.15,1.65-3.44s-.55-3.43-1.64-3.43c-.55,0-.97.29-1.25.87s-.42,1.44-.42,2.56Z" style="fill:#fff; stroke-width:0px;"/><path d="M64.25,69.59c0,1.63-.3,2.87-.91,3.74s-1.48,1.31-2.61,1.31-2.01-.43-2.62-1.3c-.61-.87-.91-2.12-.91-3.76s.3-2.87.91-3.73c.61-.87,1.49-1.3,2.63-1.3s2,.44,2.6,1.31c.6.87.91,2.12.91,3.74ZM59.07,69.59c0,1.12.14,1.97.42,2.56s.69.88,1.24.88c1.1,0,1.65-1.15,1.65-3.44s-.55-3.43-1.64-3.43c-.56,0-.97.29-1.26.87s-.42,1.44-.42,2.56Z" style="fill:#fff; stroke-width:0px;"/><path d="M71.93,74.51h-1.95l-1.61-4.19-.73.73v3.46h-1.82v-9.81h1.82v4.86l.64-1.47,1.67-3.39h1.95l-2.27,4.25,2.29,5.56Z" style="fill:#fff; stroke-width:0px;"/><path d="M78.18,71.81c0,.92-.23,1.62-.69,2.11-.46.49-1.13.73-2,.73s-1.58-.17-2.18-.5v-1.8c.73.48,1.41.72,2.02.72.35,0,.61-.1.79-.29.18-.19.26-.45.26-.78s-.11-.63-.31-.9c-.21-.27-.56-.57-1.04-.9-.42-.29-.74-.57-.96-.84-.22-.27-.38-.57-.5-.9-.12-.33-.18-.72-.18-1.15,0-.84.24-1.51.7-2s1.09-.74,1.88-.74,1.47.21,2.17.63l-.6,1.46c-.22-.13-.44-.24-.67-.34-.24-.1-.49-.15-.76-.15-.3,0-.52.1-.68.29s-.24.46-.24.8.1.62.29.86c.19.25.52.53,1,.84.64.43,1.09.87,1.34,1.31.25.45.38.96.38,1.53Z" style="fill:#fff; stroke-width:0px;"/><path d="M80.08,74.51v-9.81h1.72v9.81h-1.72Z" style="fill:#fff; stroke-width:0px;"/><path d="M90.46,69.51c0,1.62-.33,2.86-.99,3.71-.66.86-1.61,1.28-2.85,1.28h-2.4v-9.81h2.62c1.14,0,2.03.42,2.66,1.26.63.84.95,2.02.95,3.55ZM88.59,69.56c0-2.19-.6-3.29-1.81-3.29h-.73v6.64h.59c.67,0,1.16-.28,1.47-.84.32-.56.48-1.39.48-2.51Z" style="fill:#fff; stroke-width:0px;"/><path d="M96.45,74.51h-4.42v-9.81h4.42v1.58h-2.6v2.33h2.41v1.58h-2.41v2.72h2.6v1.6Z" style="fill:#fff; stroke-width:0px;"/><path d="M39.55,86.24c0,.92-.23,1.62-.69,2.11-.46.49-1.13.73-2,.73s-1.58-.17-2.18-.5v-1.8c.73.48,1.41.72,2.02.72.35,0,.61-.1.79-.29.18-.19.26-.45.26-.78s-.1-.62-.31-.9c-.21-.27-.56-.57-1.04-.9-.42-.29-.74-.57-.96-.84s-.38-.56-.5-.9c-.12-.33-.18-.72-.18-1.15,0-.84.23-1.51.7-2s1.09-.74,1.88-.74,1.47.21,2.17.63l-.6,1.46c-.21-.12-.44-.24-.67-.34-.23-.1-.49-.15-.75-.15-.29,0-.52.1-.68.29-.16.2-.24.46-.24.8s.1.62.29.87.52.53,1,.84c.64.43,1.09.87,1.34,1.32.25.45.38.96.38,1.53Z" style="fill:#fff; stroke-width:0px;"/><path d="M43.77,88.95h-1.82v-8.21h-1.88v-1.6h5.57v1.6h-1.88v8.21Z" style="fill:#fff; stroke-width:0px;"/><path d="M48.52,85.13v3.82h-1.82v-9.81h2.39c1.01,0,1.76.24,2.24.72.48.48.72,1.21.72,2.19,0,1.24-.42,2.11-1.25,2.6l1.88,4.3h-1.95l-1.55-3.82h-.65ZM48.52,83.56h.47c.43,0,.74-.12.93-.37.19-.24.28-.61.28-1.09s-.1-.86-.3-1.07-.51-.32-.92-.32h-.46v2.85Z" style="fill:#fff; stroke-width:0px;"/><path d="M58.21,88.95l-.56-2.48h-2.56l-.56,2.48h-1.82l2.43-9.85h2.47l2.44,9.85h-1.83ZM57.3,84.85l-.52-2.28c-.03-.14-.1-.49-.21-1.04-.11-.56-.18-.93-.2-1.12-.06.38-.13.81-.22,1.27-.09.46-.32,1.52-.7,3.17h1.85Z" style="fill:#fff; stroke-width:0px;"/><path d="M63.45,88.95h-1.82v-8.21h-1.88v-1.6h5.58v1.6h-1.88v8.21Z" style="fill:#fff; stroke-width:0px;"/><path d="M70.79,88.95h-4.42v-9.81h4.42v1.58h-2.6v2.34h2.41v1.58h-2.41v2.72h2.6v1.6Z" style="fill:#fff; stroke-width:0px;"/><path d="M75.19,83.51h3v5.03c-.85.36-1.75.54-2.71.54-1.14,0-2.02-.44-2.63-1.3-.62-.87-.92-2.12-.92-3.75s.35-2.81,1.06-3.7c.71-.89,1.69-1.34,2.96-1.34.78,0,1.53.2,2.24.6l-.58,1.49c-.55-.32-1.07-.48-1.56-.48-.69,0-1.24.31-1.65.93s-.61,1.46-.61,2.53.15,1.94.44,2.53c.29.58.72.88,1.28.88.3,0,.59-.04.9-.11v-2.25h-1.21v-1.61Z" style="fill:#fff; stroke-width:0px;"/><path d="M82.05,83.01l1.31-3.87h1.91l-2.33,5.88v3.93h-1.8v-3.86l-2.32-5.95h1.93l1.3,3.87Z" style="fill:#fff; stroke-width:0px;"/><path d="M90.77,88.94c-2.19-.06-3.35-1.31-3.1-2.99.19-1.26,1.14-2.07,2.2-2.5-.5-.47-.79-1.21-.71-2.02.12-1.42,1.35-2.3,2.78-2.27,1.35.03,1.98.66,1.93,1.54-.02.85-.69,1.31-1.43,1.24l.15-1.82c-.17-.14-.35-.18-.57-.19-.6-.01-1.13.44-1.27,1.47-.11.82-.02,1.31.27,1.67.65-.06,1.02.2,1.01.51,0,.26-.36.43-.77.42-.19,0-.38-.04-.57-.09-.6.32-1.07.97-1.18,1.91-.18,1.39.57,2.13,1.77,2.16,1.45.04,2.52-.91,2.71-2.37.07-.58-.06-1.06-.45-1.42-.6.38-1.15.73-1.44,1.11l-.04,1.47c-.68.13-1.08-.28-1.06-.91.04-1.7,3.64-2.57,4.24-4.1l-.43-1.52c.67-.32,1.53.04,1.5,1.04-.02.92-.87,1.65-1.8,2.29.43.44.66,1.16.58,1.98-.23,2.21-2.09,3.44-4.31,3.39Z" style="fill:#fff; stroke-width:0px;"/><path d="M37.86,94.85c-.48,0-.85.28-1.13.84-.28.56-.41,1.33-.41,2.33,0,2.07.54,3.11,1.62,3.11.47,0,.97-.15,1.49-.45v1.48c-.44.29-.99.43-1.68.43-1.01,0-1.78-.4-2.32-1.2s-.81-1.93-.81-3.38.28-2.58.84-3.39c.56-.81,1.33-1.22,2.32-1.22.33,0,.64.04.94.13.3.09.62.25.96.47l-.55,1.35c-.18-.13-.38-.24-.59-.35-.21-.1-.43-.16-.68-.16Z" style="fill:#fff; stroke-width:0px;"/><path d="M46.78,97.97c0,1.48-.28,2.62-.83,3.41s-1.35,1.19-2.38,1.19-1.83-.4-2.38-1.19c-.55-.79-.83-1.94-.83-3.43s.28-2.62.83-3.4c.55-.79,1.35-1.18,2.4-1.18s1.82.4,2.37,1.19c.55.79.83,1.93.83,3.41ZM42.06,97.97c0,1.02.13,1.8.39,2.33.26.54.63.8,1.13.8,1,0,1.5-1.04,1.5-3.13s-.5-3.13-1.49-3.13c-.51,0-.89.26-1.14.8-.26.53-.39,1.31-.39,2.33Z" style="fill:#fff; stroke-width:0px;"/><path d="M54.47,102.46h-2.03l-2.76-6.48h-.08c.1.49.15,1.02.15,1.59v4.89h-1.54v-8.94h2.04l2.74,6.41h.07c-.08-.43-.12-.94-.12-1.53v-4.88h1.53v8.94Z" style="fill:#fff; stroke-width:0px;"/><path d="M60.25,99.99c0,.84-.21,1.48-.63,1.92-.42.45-1.03.67-1.83.67s-1.44-.15-1.99-.46v-1.64c.67.44,1.28.65,1.84.65.32,0,.56-.09.72-.26.16-.18.24-.41.24-.72s-.1-.57-.29-.82c-.19-.25-.51-.52-.95-.82-.38-.27-.67-.52-.87-.76-.2-.24-.35-.52-.46-.82s-.16-.65-.16-1.05c0-.76.21-1.37.64-1.82.43-.45,1-.67,1.72-.67s1.34.19,1.98.57l-.55,1.33c-.19-.11-.4-.22-.61-.31-.21-.09-.45-.13-.69-.13-.27,0-.48.09-.62.27-.14.18-.22.42-.22.73s.09.56.26.79c.17.22.48.48.91.76.58.39.99.79,1.22,1.2.23.41.35.87.35,1.39Z" style="fill:#fff; stroke-width:0px;"/><path d="M66.97,93.52v5.78c0,1.06-.24,1.88-.72,2.44s-1.18.84-2.08.84-1.57-.28-2.03-.83c-.46-.56-.7-1.38-.7-2.47v-5.76h1.65v5.88c0,1.14.38,1.71,1.13,1.71.35,0,.62-.15.81-.44.19-.29.29-.7.29-1.23v-5.92h1.65Z" style="fill:#fff; stroke-width:0px;"/><path d="M68.64,102.46v-8.94h1.66v7.49h2.3v1.46h-3.97Z" style="fill:#fff; stroke-width:0px;"/><path d="M76.12,102.46h-1.66v-7.48h-1.71v-1.46h5.08v1.46h-1.71v7.48Z" style="fill:#fff; stroke-width:0px;"/><path d="M79.21,102.46v-8.94h1.56v8.94h-1.56Z" style="fill:#fff; stroke-width:0px;"/><path d="M89.05,102.46h-2.03l-2.76-6.48h-.08c.1.49.15,1.02.15,1.59v4.89h-1.54v-8.94h2.04l2.74,6.41h.07c-.08-.43-.12-.94-.12-1.53v-4.88h1.53v8.94Z" style="fill:#fff; stroke-width:0px;"/><path d="M93.46,97.5h2.73v4.59c-.77.33-1.6.49-2.47.49-1.04,0-1.84-.39-2.4-1.19-.56-.79-.84-1.93-.84-3.42s.32-2.56.96-3.37c.64-.81,1.54-1.22,2.7-1.22.71,0,1.39.18,2.04.55l-.53,1.36c-.51-.29-.98-.44-1.42-.44-.63,0-1.13.28-1.5.85-.37.57-.55,1.33-.55,2.31s.13,1.77.4,2.31c.27.53.66.8,1.17.8.27,0,.54-.03.82-.11v-2.05h-1.11v-1.47Z" style="fill:#fff; stroke-width:0px;"/><path d="M91.54,44.6c-.2,0-.4-.07-.56-.2l-24.96-20.49c-.3-.25-.86-.25-1.17-.01l-25.89,20.5c-.38.31-.94.24-1.24-.14-.3-.38-.24-.94.14-1.24l25.89-20.5c.96-.76,2.45-.74,3.39.03l24.96,20.49c.38.31.43.87.12,1.25-.17.21-.43.32-.68.32Z" style="fill:#00a477; stroke-width:0px;"/><path d="M97.47,57.15l-30.89-25.36c-.62-.51-1.64-.52-2.27-.02l-31.43,24.69c-1.02.8-.32,2.2,1.11,2.22l62.33.67c1.43.02,2.16-1.37,1.16-2.19Z" style="fill:#00a477; stroke-width:0px;"/><path d="M96.33,60.23h-.03l-62.33-.67c-1.1-.01-2.05-.64-2.37-1.56-.28-.81,0-1.67.72-2.24l31.43-24.69c.96-.75,2.44-.74,3.38.04l30.89,25.36c.71.58.96,1.44.67,2.25-.33.91-1.28,1.51-2.37,1.51ZM65.42,32.29c-.21,0-.42.06-.57.18l-31.44,24.69c-.18.14-.15.23-.13.27.05.14.28.36.71.36l62.33.67c.37-.03.67-.2.72-.35.01-.04.05-.13-.13-.27l-30.89-25.36c-.15-.13-.37-.19-.59-.19Z" style="fill:#fff; stroke-width:0px;"/></g></svg>