<?xml version="1.0" encoding="UTF-8"?><svg id="b" xmlns="http://www.w3.org/2000/svg" xmlns:xlink="http://www.w3.org/1999/xlink" viewBox="0 0 624.34 566.17"><defs><clipPath id="e"><rect id="f" x=".88" y="561.21" width="623.15" height="4.96" style="fill:#e0b269; stroke-width:0px;"/></clipPath><clipPath id="h"><rect id="i" x=".88" y="509.51" width="623.15" height="4.97" style="fill:#e0b269; stroke-width:0px;"/></clipPath><clipPath id="k"><rect id="l" x=".88" y="535.36" width="623.15" height="4.97" style="fill:#e0b269; stroke-width:0px;"/></clipPath><clipPath id="n"><polygon id="o" points="99.03 486.27 94.73 483.79 312.74 106.18 530.61 483.54 526.31 486.02 312.74 116.11 99.03 486.27" style="fill:#e0b269; stroke-width:0px;"/></clipPath><clipPath id="q"><polygon id="r" points="38.2 485.06 33.9 482.58 312.51 0 591.01 482.37 586.71 484.85 312.51 9.93 38.2 485.06" style="fill:#e0b269; stroke-width:0px;"/></clipPath><clipPath id="t"><path id="u" d="M563.11,487.29H61.8L312.45,53.14l250.65,434.15ZM70.4,482.32h484.11L312.45,63.07,70.4,482.32Z" style="fill:#e0b269; stroke-width:0px;"/></clipPath><clipPath id="w"><path id="x" d="M624.34,487.29H123.03L373.69,53.14l250.65,434.15ZM131.63,482.32h484.11L373.69,63.07l-242.06,419.25Z" style="fill:#e0b269; stroke-width:0px;"/></clipPath><clipPath id="z"><path id="aa" d="M501.31,487.29H0L250.65,53.14l250.65,434.15ZM8.6,482.32h484.11L250.65,63.07,8.6,482.32Z" style="fill:#e0b269; stroke-width:0px;"/></clipPath></defs><g id="c"><rect id="d" x=".88" y="561.21" width="623.15" height="4.96" style="fill:#e0b269;"/><g style="clip-path:url(#e);"><rect x=".88" y="561.21" width="623.15" height="4.96" style="fill:#e0b269; stroke-width:0px;"/></g><rect id="g" x=".88" y="509.51" width="623.15" height="4.97" style="fill:#e0b269;"/><g style="clip-path:url(#h);"><rect x=".88" y="509.51" width="623.15" height="4.97" style="fill:#e0b269; stroke-width:0px;"/></g><rect id="j" x=".88" y="535.36" width="623.15" height="4.97" style="fill:#e0b269;"/><g style="clip-path:url(#k);"><rect x=".88" y="535.36" width="623.15" height="4.97" style="fill:#e0b269; stroke-width:0px;"/></g><polygon id="m" points="99.03 486.27 94.73 483.79 312.74 106.18 530.61 483.54 526.31 486.02 312.74 116.11 99.03 486.27" style="fill:#e0b269;"/><g style="clip-path:url(#n);"><rect x="94.73" y="106.18" width="435.88" height="380.09" style="fill:#e0b269; stroke-width:0px;"/></g><polygon id="p" points="38.2 485.06 33.9 482.58 312.51 0 591.01 482.37 586.71 484.85 312.51 9.93 38.2 485.06" style="fill:#e0b269;"/><g style="clip-path:url(#q);"><rect x="33.9" width="557.11" height="485.06" style="fill:#e0b269; stroke-width:0px;"/></g><path id="s" d="M563.11,487.29H61.8L312.45,53.14l250.65,434.15ZM70.4,482.32h484.11L312.45,63.07,70.4,482.32Z" style="fill:#e0b269;"/><g style="clip-path:url(#t);"><rect x="61.8" y="53.14" width="501.31" height="434.15" style="fill:#e0b269; stroke-width:0px;"/></g><path id="v" d="M624.34,487.29H123.03L373.69,53.14l250.65,434.15ZM131.63,482.32h484.11L373.69,63.07l-242.06,419.25Z" style="fill:#e0b269;"/><g style="clip-path:url(#w);"><rect x="123.03" y="53.14" width="501.31" height="434.15" style="fill:#e0b269; stroke-width:0px;"/></g><path id="y" d="M501.31,487.29H0L250.65,53.14l250.65,434.15ZM8.6,482.32h484.11L250.65,63.07,8.6,482.32Z" style="fill:#e0b269;"/><g style="clip-path:url(#z);"><rect y="53.14" width="501.31" height="434.15" style="fill:#e0b269; stroke-width:0px;"/></g></g></svg>