<svg enable-background="new 0 0 358.1 312.3" viewBox="0 0 358.1 312.3" xmlns="http://www.w3.org/2000/svg"><path d="m5.2 159.4h86.1" fill="none" stroke="#231f20" stroke-linecap="round" stroke-miterlimit="10" stroke-width="7"/><g fill="#231f20"><path d="m193.5 189.4c-2.2 28.7-5 57.4-10.8 85.7-2.4 10.3-4.5 21.1-10.3 30.5-4.5 7.2-12.9 8.7-19 2.2-3.2-3.4-5.2-8-6.7-11.8-2.2-6-3.7-11.8-5-17.6-15.4-74.3-13.4-151.8 5.3-225.3 3.8-13.9 12.4-51 29.2-52.6 14.1-.8 16.5 23.5 18.2 33.5 1.6 11.5 2.4 23.1 2.9 34.7.8 17.2.4 34.5-.2 51.7 0 1.1-1 1.9-2 1.9s-1.8-.9-1.9-1.9c-1.9-28.5-2.3-56.9-6.5-85-1-5.7-4.2-25.6-9.8-26.3-9.4 2.9-16 36.9-17.9 46.5-6.3 33.6-9.3 67.8-11 101.9s-2.1 68.4 1.3 102.5c.6 5.7 1.3 11.3 2.3 16.9 1.5 8.1 3 16.7 7.2 23.7 2.3 3.3 4 4.2 6.7.3 2.3-3.4 3.8-7.2 5.2-11.1 3.7-10.7 6.2-21.8 8.4-32.9 4.4-22.4 7.3-45 9.5-67.7.4-3.5 5.1-2.9 4.9.2z"/><path d="m108.3 249c-25.5-45.8-23.9-117-2.4-164.2 2.6-5.4 5.2-10.6 9.2-15.3.4-.6 1.2-.7 1.7-.2.4.4.5 1 .2 1.4-.9 1.5-1.6 3.3-2.2 5-2 5.3-3.5 10.7-4.9 16.2-9 36.5-11.3 74.7-7.8 112.1 1.5 15 4 29.9 8.1 44.3.2.5-.2 1.1-.7 1.3s-1-.1-1.2-.6z"/><path d="m186.7 157.4 78.9-3.4c3-.1 5.6 2.2 5.7 5.3.1 3-2.2 5.6-5.3 5.7-.4 0-79-3.4-79.4-3.4-2.5-.2-2.5-4 .1-4.2z"/><path d="m272 158.6c-.1 6 7.5 9.1 11.6 4.8 2.6-2.5 2.6-7.1 0-9.6-4.2-4.3-11.7-1.2-11.6 4.8zm-7 0c0-12.2 14.9-18.4 23.6-9.8 5.3 5.1 5.3 14.4 0 19.5-8.7 8.7-23.6 2.5-23.6-9.7z"/><path d="m300 129 8.4-21.1c1.1-2.9 4.4-4.3 7.2-3.1 3.5 1.3 4.6 5.8 2.3 8.7 0 0-14.3 17.7-14.3 17.7-1.5 1.7-4.4-0-3.6-2.2z"/><path d="m314.6 156.5 33.7-3.4c8.1-.4 8.1 11.4 0 11 0 0-33.7-3.4-33.7-3.4-2.5-.3-2.4-4 0-4.2z"/><path d="m303.6 184.5 15.4 16.7c2.1 2.3 1.9 5.8-.3 7.9-2.7 2.6-7.3 1.6-8.8-1.7 0 0-9.7-20.5-9.7-20.5-1.1-2.2 1.8-4.1 3.4-2.4z"/></g></svg>